<?xml version="1.0" encoding="utf-8"?>
<!-- Generator: Adobe Illustrator 23.0.3, SVG Export Plug-In . SVG Version: 6.00 Build 0)  -->
<svg version="1.1" id="Layer_1" xmlns="http://www.w3.org/2000/svg" xmlns:xlink="http://www.w3.org/1999/xlink" x="0px" y="0px"
	 viewBox="0 0 512 511" style="enable-background:new 0 0 512 511;" xml:space="preserve">
<style type="text/css">
	.st0{fill:#3333FF;}
	.st1{fill:#2929CC;}
	.st2{fill:#33FF33;}
	.st3{fill:#2EE52E;}
	.st4{fill:#FF3333;}
	.st5{fill:#E53030;}
	.st6{fill:#202326;}
</style>
<path class="st0" d="M464.1,461.4c-137.6,25.3-278.6,25.3-416.1,0c-34.2-6.3-55.4-40.8-45.5-74.1c9.4-32,37.5-55,70.7-58
	c121.7-11.1,244.1-11.1,365.8,0c33.2,3,61.2,26,70.7,58C519.4,420.6,498.2,455.1,464.1,461.4z"/>
<path class="st1" d="M274.5,480.2c-113.7-24.4-79.7-125.8-42.7-159.1c-53,0.6-105.9,3.4-158.8,8.2c-33.2,3-61.2,26-70.7,58
	c-9.8,33.3,11.4,67.8,45.5,74.1C122.8,475.1,198.7,481.4,274.5,480.2z"/>
<path class="st2" d="M439.2,342.8c-121.1,22.3-245.3,22.3-366.5,0c-30.1-5.5-48.8-35.9-40.1-65.3c8.3-28.2,33-48.4,62.3-51.1
	c107.2-9.8,215-9.8,322.1,0c29.3,2.7,53.9,22.9,62.3,51.1C488,306.9,469.3,337.3,439.2,342.8z"/>
<path class="st3" d="M219.8,219.5c-41.7,0.9-83.4,3.2-124.9,7c-29.3,2.7-53.9,22.9-62.3,51.1c-8.7,29.3,10,59.7,40.1,65.3
	c63.1,11.6,127,17.1,190.8,16.7C156.2,340.7,164.1,256.2,219.8,219.5z"/>
<path class="st4" d="M202.8,134.1c71.7-3.2,106.6-7,76.1-64.5c-5.7-14-28.9-36.6,29.3-16.1c40.2,11.5,131.6,67.8,131.6,135.9h-0.1
	c1.2,20.4-12.9,39.3-33.9,43.1c-97.6,17.9-197.6,17.9-295.1,0C86.5,228,71.4,203.6,78.4,180c6.7-22.7,22-31.5,40.5-36.8
	C140.4,136.8,167.4,136.6,202.8,134.1z"/>
<path class="st5" d="M187,135.1c-27.8,1.7-49.9,2.7-68.2,8c-18.4,5.4-33.8,14.1-40.5,36.8c-7,23.6,8.1,48.1,32.3,52.5
	c50.6,9.3,101.9,13.8,153.2,13.4C160.9,230,158.6,163.8,187,135.1z"/>
<g>
	<g>
		<path class="st6" d="M153.1,311.9c-5.7,0-10.5-4.8-10.5-10.5V284c0-5.7,4.8-10.5,10.5-10.5s10.5,4.8,10.5,10.5v17.4
			C163.6,307.1,159,311.9,153.1,311.9z"/>
		<path class="st6" d="M256,343.9c-16.2,0-29.3-13.2-29.3-29.3v-21.3c0-4.5,3.6-8,8-8h42.6c4.5,0,8,3.6,8,8v21.3
			C285.3,330.8,272.2,343.9,256,343.9z"/>
		<path class="st6" d="M358.9,311.9c-5.7,0-10.5-4.8-10.5-10.5V284c0-5.7,4.8-10.5,10.5-10.5s10.5,4.8,10.5,10.5v17.4
			C369.4,307.1,364.6,311.9,358.9,311.9z"/>
	</g>
</g>
</svg>
